<?xml version="1.0" encoding="UTF-8" standalone="no"?>
<!-- Created with Inkscape (http://www.inkscape.org/) -->

<svg
   width="225.95413mm"
   height="48.683342mm"
   viewBox="0 0 225.95413 48.683342"
   version="1.1"
   id="svg1"
   xml:space="preserve"
   xmlns:inkscape="http://www.inkscape.org/namespaces/inkscape"
   xmlns:sodipodi="http://sodipodi.sourceforge.net/DTD/sodipodi-0.dtd"
   xmlns="http://www.w3.org/2000/svg"
   xmlns:svg="http://www.w3.org/2000/svg"><sodipodi:namedview
     id="namedview1"
     pagecolor="#505050"
     bordercolor="#eeeeee"
     borderopacity="1"
     inkscape:showpageshadow="0"
     inkscape:pageopacity="0"
     inkscape:pagecheckerboard="0"
     inkscape:deskcolor="#d1d1d1"
     inkscape:document-units="mm" /><defs
     id="defs1" /><g
     inkscape:label="Layer 1"
     inkscape:groupmode="layer"
     id="layer1"
     transform="translate(10.332071,-131.33661)"><g
       id="g105"><path
         style="fill:#0878ba"
         d="M -0.0133211,180.01995 H -10.332071 V 155.67828 131.33661 H 0 10.332071 l -0.146573,3.24115 c -0.08062,1.78263 -0.05196,3.65786 0.06367,4.16719 0.115636,0.50932 0.374219,0.92604 0.574634,0.92604 0.200412,0 0.672352,-0.59531 1.048752,-1.32292 0.3764,-0.7276 0.994972,-1.73963 1.374603,-2.24896 0.379633,-0.50932 1.063673,-1.61798 1.52009,-2.46369 0.456417,-0.84571 0.829848,-1.70891 0.829848,-1.91823 0,-0.32773 2.806868,-0.38058 20.212317,-0.38058 18.186914,0 20.22841,0.0419 20.372916,0.41852 0.08833,0.23018 0.160599,3.74252 0.160599,7.80521 0,4.39224 0.10003,7.38669 0.246754,7.38669 0.135714,0 0.312075,-0.20836 0.391914,-0.46302 0.07984,-0.25466 0.749191,-3.38005 1.487451,-6.94531 0.738259,-3.56526 1.410915,-6.86925 1.494788,-7.34219 l 0.152497,-0.8599 h 9.961785 9.961786 l 0.353578,1.25677 c 0.194468,0.69123 0.798313,2.62599 1.341878,4.29948 0.543566,1.67349 1.12358,3.51896 1.28892,4.10104 0.16534,0.58209 0.33163,1.41553 0.36953,1.85209 0.0566,0.6519 0.187117,0.79375 0.730368,0.79375 0.501786,0 0.683668,-0.15744 0.753464,-0.65222 0.0506,-0.35872 0.621553,-2.2534 1.268779,-4.21039 0.647226,-1.957 1.469026,-4.19711 1.826224,-4.97802 0.357198,-0.78092 0.64945,-1.65444 0.64945,-1.94117 0,-0.50957 0.226796,-0.52133 10.054167,-0.52133 h 10.05417 v 1.57189 c 0,0.18217 2.22696,14.85782 2.9453,14.41384 0.12633,-0.0781 0.2297,-3.70681 0.2297,-8.06384 v -7.92189 h 12.5677 c 8.20209,0 12.56771,0.0919 12.56771,0.26459 0,0.15097 0.78855,0.26458 1.83647,0.26458 1.01006,0 1.91005,0.11906 1.99999,0.26458 0.0899,0.14552 0.38319,0.26459 0.65167,0.26459 0.26849,0 1.54138,0.54967 2.82866,1.22149 1.28728,0.67183 2.77859,1.64029 3.31403,2.15214 0.61355,0.58653 1.12717,0.87168 1.38906,0.77118 0.33745,-0.12949 0.41554,-0.63339 0.41554,-2.6813 v -2.52185 h 10.58107 10.58108 l 0.0684,14.48594 0.0684,14.48594 h 5.15937 5.15938 l 0.0684,-14.48594 0.0684,-14.48594 h 17.19565 17.19566 v 8.71368 8.71367 l -0.7276,0.0837 -0.72761,0.0837 -0.0707,6.68757 -0.0707,6.68757 0.59987,0.22668 c 0.32992,0.12467 0.68916,0.1741 0.7983,0.10984 0.10914,-0.0643 0.19844,3.81925 0.19844,8.63002 v 8.74687 h -33.07292 -33.07291 v -1.7281 c 0,-1.24121 -0.10488,-1.76834 -0.37226,-1.87094 -0.20474,-0.0786 -0.82982,0.14471 -1.38906,0.49617 -0.55924,0.35146 -1.43353,0.82345 -1.94285,1.04887 -0.50932,0.22541 -1.16416,0.49322 -1.45521,0.59512 -0.29104,0.1019 -1.16005,0.35277 -1.93113,0.55749 -0.77109,0.20472 -2.10352,0.37222 -2.96095,0.37222 -0.85744,0 -1.63256,0.11906 -1.7225,0.26458 -0.10679,0.17279 -7.43623,0.26459 -21.12545,0.26459 H 95.614931 l -0.318126,-2.4474 c -0.174969,-1.34607 -0.460463,-3.55138 -0.634432,-4.9007 -0.191419,-1.48465 -0.427768,-2.42027 -0.598606,-2.36965 -0.155265,0.046 -0.996674,2.25087 -1.869799,4.89969 l -1.5875,4.81603 -6.494047,0.001 -6.494048,0.001 -1.553318,-4.89479 c -0.938741,-2.95815 -1.685992,-4.8948 -1.888644,-4.8948 -0.184429,0 -0.401099,0.20836 -0.48149,0.46302 -0.08039,0.25467 -0.270669,1.59412 -0.422841,2.97657 -0.152172,1.38244 -0.349731,3.37674 -0.439021,4.43177 l -0.162345,1.91823 H 44.758385 c -26.267044,0 -27.933951,-0.0273 -28.279141,-0.46302 -0.201746,-0.25467 -0.777453,-1.25784 -1.27935,-2.22928 -0.501897,-0.97143 -1.030697,-1.83927 -1.175111,-1.92853 -0.144415,-0.0893 -0.618833,-0.90875 -1.054263,-1.82111 -0.43543,-0.91236 -1.030176,-1.87467 -1.321662,-2.13846 -0.291484,-0.26379 -0.712999,-0.40938 -0.9367,-0.32354 -0.34322,0.13171 -0.406729,0.83905 -0.406729,4.53001 v 4.37393 z m 0.378865,-3.23711 7.4263426,-0.0702 5.59e-4,-2.24896 c 3.07e-4,-1.23693 0.03007,-4.95763 0.06615,-8.26823 0.03607,-3.3106 0.154884,-6.01796 0.264024,-6.01636 0.109141,0.002 1.055988,1.51965 2.1041035,3.37344 1.048116,1.85379 3.165802,5.50929 4.705966,8.12335 1.540165,2.61405 2.944803,4.84465 3.121417,4.95688 0.176616,0.11224 4.33245,0.20589 9.23519,0.20812 4.90274,0.002 8.977955,-0.0993 9.056034,-0.22565 0.07808,-0.12634 -1.273837,-2.29923 -3.004257,-4.82865 -1.73042,-2.52942 -4.942433,-7.24385 -7.137805,-10.47651 -2.195373,-3.23267 -3.991586,-6.00947 -3.991586,-6.17069 0,-0.16121 1.624549,-2.93365 3.610109,-6.16097 1.985559,-3.22732 4.737088,-7.68273 6.114505,-9.9009 1.377419,-2.21818 2.521073,-4.24224 2.541454,-4.49792 0.03452,-0.43305 -0.534506,-0.46965 -8.313915,-0.53467 l -8.350971,-0.0698 -0.549148,0.59896 c -0.302032,0.32943 -2.247078,3.81365 -4.322325,7.74271 -2.075247,3.92906 -3.9637875,7.48951 -4.1967555,7.91211 -0.232968,0.4226 -0.522555,0.72025 -0.643527,0.66146 -0.120972,-0.0588 -0.205667,-3.69544 -0.18821,-8.08142 0.02788,-7.00559 -0.02002,-8.02628 -0.3942626,-8.40052 -0.369636,-0.36964 -1.3308198,-0.426 -7.2646289,-0.426 -3.7612455,0 -7.0269597,0.0723 -7.2571427,0.1606 -0.3767881,0.14458 -0.4185146,2.26372 -0.4185146,21.25486 0,11.60184 0.081192,21.17545 0.1804276,21.27469 0.099235,0.0992 3.5222819,0.14884 7.6067706,0.11024 z m 45.7180131,-3e-5 7.745828,-0.0702 0.06775,-21.00534 c 0.04978,-15.43402 -0.01233,-21.10182 -0.234153,-21.3691 -0.245835,-0.29622 -1.707925,-0.35074 -7.872956,-0.29363 l -7.571055,0.0701 -0.06837,21.03437 c -0.0376,11.56891 -0.01088,21.18501 0.05938,21.36912 0.09985,0.26163 1.819425,0.31941 7.873576,0.26458 z m 16.615042,0.0621 h 7.414006 l 0.240315,-0.59532 c 0.132173,-0.32742 0.605333,-4.04812 1.051466,-8.26822 0.446135,-4.22011 0.876524,-8.50636 0.956422,-9.525 0.0799,-1.01865 0.208947,-2.37247 0.286776,-3.00849 0.07783,-0.63601 0.236195,-1.05273 0.351924,-0.92604 0.11573,0.1267 0.394966,1.0638 0.620527,2.08244 0.22556,1.01865 1.247746,4.70959 2.271524,8.20209 1.023778,3.4925 2.257295,7.60015 2.741148,9.12812 l 0.879733,2.77813 4.517378,0.0722 c 3.407938,0.0545 4.585574,-0.0105 4.795058,-0.26458 0.152724,-0.18525 0.45411,-0.99167 0.669746,-1.79203 0.215636,-0.80036 1.42505,-4.90802 2.687588,-9.12812 1.262539,-4.22011 2.413392,-8.32777 2.557454,-9.12813 0.144062,-0.80036 0.329003,-1.68296 0.41098,-1.96133 0.117951,-0.40052 0.190445,-0.42812 0.347446,-0.13229 0.109118,0.20561 0.278603,1.50492 0.376633,2.88737 0.09803,1.38245 0.59358,6.26175 1.101224,10.8429 0.507642,4.58115 1.016462,8.42283 1.130712,8.53708 0.11425,0.11425 3.533601,0.17604 7.598561,0.13731 7.2105,-0.0687 7.38958,-0.0833 7.33957,-0.59958 -0.0282,-0.29104 -0.22636,-1.66026 -0.44038,-3.04271 -0.21403,-1.38245 -0.9396,-6.02589 -1.61238,-10.31875 -0.67278,-4.29286 -1.74222,-11.0199 -2.37652,-14.94896 -0.6343,-3.92906 -1.36442,-8.49494 -1.62248,-10.14639 -0.25807,-1.65145 -0.63608,-3.16949 -0.84002,-3.37343 -0.30054,-0.30055 -1.78979,-0.3708 -7.860131,-0.3708 -5.687186,0 -7.555681,0.0799 -7.765084,0.33226 -0.151667,0.18275 -1.076618,2.95096 -2.055449,6.15157 -0.978831,3.20061 -2.100887,7.06945 -2.493458,8.59742 -0.392572,1.52797 -0.875112,3.70086 -1.072312,4.82864 -0.197202,1.12779 -0.451645,2.05052 -0.565433,2.05052 -0.113786,0 -0.260146,-0.26789 -0.325242,-0.59531 -0.0651,-0.32742 -0.315448,-1.66687 -0.556336,-2.97656 -0.240889,-1.30969 -0.651352,-3.15516 -0.912139,-4.10104 -0.26079,-0.94589 -1.281083,-4.45823 -2.26732,-7.80521 -0.986237,-3.34698 -1.923766,-6.17289 -2.083398,-6.2798 -0.159632,-0.10692 -3.623989,-0.19439 -7.698572,-0.19439 -4.074584,0 -7.564509,0.099 -7.755388,0.22009 -0.216128,0.13706 -0.84242,3.10501 -1.660141,7.8673 -0.722198,4.20597 -1.841558,10.74284 -2.487467,14.52638 -0.64591,3.78354 -1.653892,9.67714 -2.239962,13.09688 -0.58607,3.41974 -1.066708,6.42606 -1.068083,6.68073 -0.0023,0.43001 0.525984,0.46302 7.411504,0.46302 z m 63.840671,-3.6e-4 c 8.66867,-2.8e-4 11.94081,-0.0907 13.55326,-0.37447 1.16911,-0.20575 2.83133,-0.62212 3.69382,-0.92526 0.86249,-0.30314 2.1875,-0.96238 2.94447,-1.46498 0.75697,-0.50261 1.67963,-1.31149 2.05034,-1.79752 0.37072,-0.48603 1.00236,-1.59305 1.40365,-2.46003 0.61725,-1.33356 0.74546,-2.00943 0.83245,-4.38831 0.0745,-2.03736 -0.0122,-3.20775 -0.31484,-4.24869 -0.22971,-0.79019 -0.7484,-1.92651 -1.15264,-2.52517 -0.40424,-0.59866 -1.19684,-1.45417 -1.76134,-1.90113 -0.56451,-0.44697 -1.72536,-1.06753 -2.57969,-1.37903 -0.85433,-0.31151 -1.55332,-0.66748 -1.55332,-0.79105 0,-0.12357 0.56554,-0.51323 1.25677,-0.86592 0.69122,-0.35268 1.5625,-0.97976 1.93618,-1.39352 0.37368,-0.41375 0.86898,-1.05916 1.10068,-1.43424 0.23169,-0.37508 0.61057,-1.31943 0.84194,-2.09854 0.23137,-0.77912 0.42068,-2.2068 0.42068,-3.17262 0,-0.96582 -0.19173,-2.40272 -0.42607,-3.19312 -0.23433,-0.7904 -0.6462,-1.86932 -0.91526,-2.39761 -0.26906,-0.52828 -1.03556,-1.50688 -1.70333,-2.17465 -0.66777,-0.66776 -2.0716,-1.63288 -3.11963,-2.14469 -1.22161,-0.59659 -2.74884,-1.07432 -4.25527,-1.33109 -1.83087,-0.31206 -4.70127,-0.4005 -12.99833,-0.4005 -8.68908,0 -10.70388,0.0666 -10.94914,0.36216 -0.22007,0.26516 -0.2819,5.91701 -0.23084,21.10053 0.0384,11.40609 0.16606,20.88718 0.28379,21.06908 0.16581,0.25618 2.78981,0.33065 11.64167,0.33037 z m 5.19059,-10.68637 c -1.08078,0.0893 -2.05436,0.0697 -2.1635,-0.0435 -0.10914,-0.11323 -0.19843,-1.60676 -0.19843,-3.31895 0,-2.75634 0.0541,-3.13026 0.47253,-3.26305 0.2599,-0.0825 1.33105,-0.0422 2.38034,0.0896 1.04929,0.13175 2.29517,0.46448 2.76861,0.73939 0.5959,0.34602 0.96991,0.84093 1.21533,1.60819 0.31601,0.98795 0.30164,1.21659 -0.13229,2.10474 -0.30277,0.61968 -0.84422,1.17121 -1.43217,1.45881 -0.51994,0.25434 -1.82963,0.5355 -2.91042,0.6248 z m -0.37697,-16.08409 c -1.3217,0.0842 -1.74695,0.022 -1.85977,-0.27207 -0.0805,-0.20965 -0.11177,-1.50335 -0.0696,-2.87488 l 0.0767,-2.49369 1.71979,0.0667 c 1.17344,0.0455 1.92993,0.22177 2.38125,0.55488 0.3638,0.26851 0.83413,0.79241 1.04517,1.16421 0.29035,0.51152 0.32254,0.91757 0.1323,1.66873 -0.14568,0.5752 -0.55865,1.22076 -0.98188,1.53489 -0.50438,0.37436 -1.2608,0.57593 -2.44396,0.65127 z m 36.33043,26.70685 14.99815,-0.0683 v -6.87917 -6.87917 l -7.34219,-0.0703 -7.34219,-0.0703 -0.0228,-1.51717 c -0.0126,-0.83444 -0.0423,-7.20666 -0.0661,-14.16047 -0.0374,-10.91839 -0.0975,-12.67757 -0.4402,-12.89439 -0.22481,-0.14223 -3.51587,-0.25284 -7.59115,-0.25513 -3.95686,-0.002 -7.25989,0.1021 -7.34008,0.23185 -0.0802,0.12975 -0.14914,9.66224 -0.15323,21.18332 -0.004,11.52108 0.0621,21.05997 0.14715,21.19753 0.0949,0.15363 5.93965,0.22375 15.15271,0.18178 z m 30.9224,0.064 h 14.38086 l -0.0713,-5.75469 -0.0713,-5.75469 -6.74688,-0.13229 -6.74687,-0.13229 -0.0788,-1.80975 c -0.0444,-1.02115 0.0449,-1.95875 0.205,-2.15169 0.22158,-0.26699 1.40527,-0.3115 5.40076,-0.20309 2.81434,0.0764 5.43077,0.0601 5.81427,-0.0362 l 0.69729,-0.17501 v -5.27101 c 0,-3.69022 -0.0914,-5.32747 -0.3046,-5.45926 -0.16753,-0.10354 -2.81667,-0.21332 -5.88698,-0.24397 -3.07031,-0.0306 -5.67712,-0.072 -5.79291,-0.0919 -0.11579,-0.0199 -0.17532,-0.8399 -0.13229,-1.82216 l 0.0782,-1.78594 6.61458,-0.13229 6.61458,-0.1323 v -5.82083 -5.82083 l -13.99296,-0.0685 c -10.11358,-0.0495 -14.09296,0.0145 -14.35365,0.23084 -0.29896,0.24812 -0.36068,3.88551 -0.36068,21.25722 0,11.52683 0.0794,21.03725 0.17639,21.13427 0.097,0.097 6.64777,0.17639 14.55724,0.17639 z M 34.839428,168.64286 c 0.275465,0 0.328206,-2.74758 0.272985,-14.22135 -0.04462,-9.27171 -0.16053,-14.21606 -0.333027,-14.20614 -0.145521,0.008 -1.962158,2.56821 -4.036971,5.68854 -2.074814,3.12033 -4.26138,6.47703 -4.859037,7.45932 -1.078973,1.77338 -1.083354,1.79114 -0.620118,2.51355 0.256593,0.40015 1.543696,2.21582 2.860229,4.03483 1.316533,1.81901 3.28938,4.52769 4.384103,6.01927 1.094723,1.49159 2.144049,2.71198 2.331836,2.71198 z"
         id="path2"
         sodipodi:nodetypes="ccccccsssssssssssssscccsssssssssscssscssssssssscccccccccccccccccssscccssssssssscsssscccssssscssssssssccccsscssscsssssssscssssssscssscccssscssccccsssssssscssssssssssssssssssssssssssssssssssscssssssssssssssssssssssssssssssssssssssscscssssssscccccccsscscccccccccccssccssssscccccssssscsscssssss" /><g
         id="g104"><path
           style="fill:#ffffff;fill-opacity:1;stroke:#000000;stroke-width:0;paint-order:markers stroke fill"
           d="m 84.649821,668.11213 c -6.336609,-0.10107 -12.586473,-0.2667 -13.888586,-0.36806 -2.349304,-0.18288 -2.372805,-0.19105 -3.061643,-1.06482 -2.357413,-2.99028 -13.320926,-21.34334 -26.823743,-44.90327 -6.462131,-11.27523 -9.656622,-16.48253 -10.116338,-16.4905 -0.09106,-0.002 -0.224681,0.18813 -0.296932,0.42158 -0.517722,1.67286 -1.096373,28.43917 -1.108381,51.26977 l -0.0057,10.82463 -21.7688291,0.18281 c -21.4179149,0.17986 -33.7351559,0.0444 -34.5278029,-0.37986 -0.340972,-0.18248 -0.425382,-0.83929 -0.55069,-4.28502 -0.0814,-2.23822 -0.214831,-32.22951 -0.296522,-66.6473 -0.175148,-73.79319 0.01911,-88.14517 1.209159,-89.33522 0.255126,-0.25512 1.774121,-0.39445 6.245795,-0.57287 7.60223,-0.30334 43.67176,-0.0972 45.754944,0.26152 2.880757,0.49603 3.517486,1.17246 3.962443,4.20954 0.15849,1.08178 0.33906,12.20109 0.469688,28.92297 0.116717,14.94105 0.284921,27.80205 0.373788,28.57998 0.191784,1.67889 0.580097,1.94367 1.524107,1.03925 0.83604,-0.80097 1.204671,-1.46875 10.459322,-18.94705 16.553147,-31.26221 21.526484,-40.20229 23.866901,-42.90319 l 1.236714,-1.42719 22.92094,0.16567 c 24.278635,0.1755 36.270495,0.45211 38.279615,0.88299 1.82022,0.39037 1.92952,0.65182 1.05432,2.52208 -1.44316,3.08396 -5.65606,10.18266 -14.83324,24.99391 -21.13242,34.10607 -30.281875,49.29507 -30.719645,50.99766 -0.290075,1.12817 3.169665,6.41974 28.900925,44.20307 7.22257,10.60549 14.54944,21.41107 16.28195,24.01242 5.56764,8.35975 8.30059,12.93933 7.87774,13.20066 -0.89197,0.55127 -33.14601,0.94127 -52.420306,0.63384 z"
           id="path99"
           transform="scale(0.26458333)" /><path
           style="fill:#ffffff;fill-opacity:1;stroke:#000000;stroke-width:0;paint-order:markers stroke fill"
           d="m 148.16203,667.8654 c -1.42041,-0.11214 -2.80211,-0.32138 -3.07046,-0.465 -0.40728,-0.21797 -0.51747,-0.61233 -0.66683,-2.38669 -0.19222,-2.28343 0.009,-157.67583 0.20408,-157.87125 0.25775,-0.25775 43.93936,-0.55265 49.89598,-0.33686 6.82173,0.24714 7.90157,0.42813 8.26553,1.38542 0.39257,1.03254 0.67004,11.06005 0.81408,29.42023 0.13593,17.32579 -0.18638,129.92601 -0.37243,130.11207 -0.20243,0.20242 -52.59336,0.33759 -55.06995,0.14208 z"
           id="path100"
           transform="scale(0.26458333)" /><path
           style="fill:#ffffff;fill-opacity:1;stroke:#000000;stroke-width:0;paint-order:markers stroke fill"
           d="m 210.05237,667.26487 c -1.07937,-0.68979 -1.40469,1.38067 12.86803,-81.89871 10.30473,-60.12672 13.3534,-76.48732 14.46642,-77.63357 0.79994,-0.82383 38.47906,-1.41546 49.53284,-0.77775 l 8.7329,0.50381 2.70418,8.33564 c 6.31395,19.46276 14.143,47.66577 16.57577,59.71178 1.43935,7.12703 2.93318,13.27443 3.31964,13.66089 0.92368,0.92367 1.65793,-1.06062 3.12702,-8.45076 3.67255,-18.4744 18.83565,-69.98971 21.40101,-72.70806 0.83115,-0.88071 4.8493,-1.02905 27.87382,-1.02905 14.79647,0 27.7378,0.23394 28.7585,0.51987 2.85304,0.79923 2.13516,-2.85026 13.52726,68.76956 12.89217,81.05053 14.11729,89.45782 13.17359,90.40226 -1.11032,1.11118 -52.10994,1.6602 -54.12336,0.58264 -0.92146,-0.49315 -1.46086,-1.72993 -1.74509,-4.00126 -2.41212,-19.27636 -4.29511,-36.01266 -6.27049,-55.73314 -2.07462,-20.71113 -2.92333,-25.84511 -4.08112,-24.68733 -0.16356,0.16357 -1.38379,4.77372 -2.71162,10.24478 -2.1522,8.86771 -19.18732,67.59043 -20.91904,72.11118 -0.37772,0.98604 -1.40505,1.98516 -2.28297,2.22024 -0.87792,0.23508 -8.70328,0.43164 -17.38969,0.4368 l -15.79348,0.009 -5.6191,-18.35141 c -5.28046,-17.24542 -14.0429,-47.70022 -17.36991,-60.37098 -1.50532,-5.73296 -2.38314,-6.91847 -3.04788,-4.11621 -0.20139,0.84897 -1.60169,13.89219 -3.11177,28.98494 -2.90259,29.01031 -5.14474,48.08971 -6.04863,51.47041 l -0.5455,2.04023 -27.04913,0.16549 c -14.87702,0.091 -27.45551,-0.0942 -27.9522,-0.41165 z"
           id="path101"
           transform="scale(0.26458333)" /><path
           style="fill:#ffffff;fill-opacity:1;stroke:#000000;stroke-width:0;paint-order:markers stroke fill"
           d="m 436.22542,667.3962 -1.80725,-0.30401 -0.47506,-25.51685 c -0.26129,-14.03427 -0.37417,-49.65854 -0.25085,-79.16504 0.17922,-42.88266 0.40326,-53.82709 1.11646,-54.5397 1.30027,-1.29919 78.87824,-1.2845 87.26312,0.0165 26.23551,4.07077 41.31433,19.5267 41.27651,42.3088 -0.0244,14.67485 -4.97988,24.15807 -15.98158,30.58341 -2.59266,1.51419 -4.71391,3.04125 -4.71391,3.39347 0,0.35222 3.20791,2.15357 7.12869,4.003 10.62648,5.01248 15.6263,10.26916 19.01639,19.9933 1.36599,3.91821 1.54564,5.70772 1.48078,14.74973 -0.0589,8.21202 -0.34899,11.161 -1.43617,14.6003 -1.91012,6.04268 -6.32221,13.15088 -10.48713,16.8955 -4.98113,4.47847 -14.48389,8.97526 -23.59196,11.16394 l -7.54637,1.81341 -44.59221,0.15411 c -24.52571,0.0848 -45.40547,0.0173 -46.39946,-0.14989 z m 69.17817,-40.42635 c 4.98424,-1.29823 7.29967,-3.031 9.14558,-6.84413 2.35942,-4.8739 0.6109,-11.29056 -3.82342,-14.03112 -3.11561,-1.92555 -11.22056,-3.5143 -16.68905,-3.27142 l -4.51808,0.20066 -0.57645,3.08716 c -0.87339,4.67748 -0.11656,21.32027 1.00423,22.08316 1.17236,0.79798 10.54248,0.0558 15.45719,-1.22431 z m -1.66284,-60.88446 c 2.87487,-1.20119 5.0667,-3.90981 6.01567,-7.43403 0.84419,-3.13505 0.43766,-4.86694 -1.86337,-7.93833 -2.55013,-3.40389 -5.24655,-4.45362 -12.40128,-4.82785 l -6.34956,-0.33213 -0.12008,7.81136 c -0.15578,10.13408 0.0732,13.17491 1.04311,13.8548 1.15731,0.81121 10.96689,-0.002 13.67551,-1.13382 z"
           id="path102"
           transform="scale(0.26458333)" /><path
           style="fill:#ffffff;fill-opacity:1;stroke:#000000;stroke-width:0;paint-order:markers stroke fill"
           d="m 579.24249,667.36213 -2.17128,-0.27234 -0.45061,-5.62067 c -0.62113,-7.74786 -0.13486,-153.22147 0.51435,-153.87033 0.75535,-0.75495 40.00689,-1.15336 48.48035,-0.4921 l 7.15569,0.55843 0.55395,2.05811 c 0.30467,1.13195 0.76275,25.44328 1.01795,54.02517 l 0.46399,51.96707 15.83756,0.002 c 8.71065,10e-4 21.16288,0.2041 27.67163,0.451 l 11.83408,0.4489 v 25.61829 25.61829 l -54.36819,-0.10979 c -29.9025,-0.0604 -55.34526,-0.23235 -56.53947,-0.38213 z"
           id="path103"
           transform="scale(0.26458333)" /><path
           style="fill:#ffffff;fill-opacity:1;stroke:#000000;stroke-width:0;paint-order:markers stroke fill"
           d="m 696.43745,667.25237 c -0.75547,-0.47888 -0.91158,-14.15737 -0.89047,-78.02586 0.0141,-42.59485 0.29329,-78.37133 0.62049,-79.50328 l 0.5949,-2.05811 10.24306,-0.49062 c 5.63369,-0.26985 29.61495,-0.30306 53.2917,-0.0738 l 43.04863,0.41683 v 21.40438 21.40437 l -11.83409,0.4489 c -6.50875,0.2469 -17.73287,0.44985 -24.94251,0.451 l -13.10842,0.002 -0.44075,4.21684 c -0.58864,5.63179 -0.54073,8.28384 0.16991,9.40537 0.46506,0.73395 5.17097,1.03297 22.27153,1.41517 11.92504,0.26652 21.91976,0.72198 22.21048,1.01213 0.29072,0.29015 0.62676,9.42822 0.74675,20.30681 l 0.21816,19.77927 -4.33436,0.43888 c -2.3839,0.24138 -12.26519,0.34538 -21.95842,0.2311 -13.79464,-0.16262 -17.81937,-0.0134 -18.52292,0.687 -0.96343,0.95905 -1.21738,14.10813 -0.29037,15.03514 0.26701,0.26702 11.61715,0.70921 25.22253,0.98267 13.60538,0.27345 24.82925,0.59329 24.94195,0.71075 0.11269,0.11745 0.43114,9.70655 0.70767,21.3091 l 0.50277,21.09554 -53.77608,-0.0105 c -29.57684,-0.006 -54.18831,-0.27182 -54.69214,-0.59118 z"
           id="path104"
           transform="scale(0.26458333)" /></g></g></g></svg>
